<?xml version="1.0" encoding="UTF-8" standalone="no"?>
<!-- Created with Inkscape (http://www.inkscape.org/) -->

<svg
   width="512"
   height="512"
   viewBox="0 0 512 512"
   version="1.1"
   id="svg1"
   xml:space="preserve"
   inkscape:version="1.4 (86a8ad7, 2024-10-11)"
   sodipodi:docname="sol_tray.svg"
   xmlns:inkscape="http://www.inkscape.org/namespaces/inkscape"
   xmlns:sodipodi="http://sodipodi.sourceforge.net/DTD/sodipodi-0.dtd"
   xmlns="http://www.w3.org/2000/svg"
   xmlns:svg="http://www.w3.org/2000/svg"><sodipodi:namedview
     id="namedview1"
     pagecolor="#ffffff"
     bordercolor="#000000"
     borderopacity="0.25"
     inkscape:showpageshadow="2"
     inkscape:pageopacity="0.0"
     inkscape:pagecheckerboard="0"
     inkscape:deskcolor="#d1d1d1"
     inkscape:document-units="px"
     inkscape:zoom="2.6060752"
     inkscape:cx="213.92322"
     inkscape:cy="313.6901"
     inkscape:window-width="3840"
     inkscape:window-height="2126"
     inkscape:window-x="-11"
     inkscape:window-y="-11"
     inkscape:window-maximized="1"
     inkscape:current-layer="layer1" /><defs
     id="defs1" /><g
     inkscape:label="Layer 1"
     inkscape:groupmode="layer"
     id="layer1"><circle
       style="fill:#242424;stroke-width:1.25834;fill-opacity:1"
       id="path1"
       cx="257.09067"
       cy="258.5849"
       r="55.652336" /><path
       style="fill:#242424;stroke-width:1.25834;fill-opacity:1"
       d="m 290.68489,1.1857202 c 9.47148,12.4815698 19.36625,24.7607368 26.92403,38.5440118 6.98334,13.465517 11.59004,27.963013 16.86223,42.139614 0.59917,1.344875 -1.13323,2.91527 -2.41345,2.192266 -11.46618,-4.512027 -23.07655,-8.805216 -35.13399,-11.461621 -13.22794,-3.003064 -26.81224,-4.333103 -40.36976,-4.218833 -4.25559,-0.02441 -8.51118,-0.04895 -12.76679,-0.07336 -3.10876,-0.635197 -5.96074,-2.086024 -8.89088,-3.249925 -8.72991,-3.710159 -17.42687,-7.608452 -26.60137,-10.112306 -11.03137,-3.098221 -22.51822,-4.39401 -33.96162,-4.303101 -11.47473,0.05971 -22.87042,1.644773 -34.16759,3.532911 -18.23344,2.877614 -36.45625,5.945912 -54.843258,7.685888 -1.28494,0.236373 -2.661412,0.01677 -3.873319,0.594765 0.22742,1.561775 2.179293,1.161498 3.292898,1.510322 21.829329,4.561442 43.646629,9.219474 65.638079,12.94675 13.7288,2.388919 27.47116,4.699004 41.20811,7.04037 1.14881,-0.773639 2.33507,1.404395 1.16986,2.042348 -5.4376,2.541442 -10.74205,5.375411 -15.96991,8.326745 -11.54646,6.587395 -22.57424,14.107645 -32.74792,22.672505 -4.91003,4.13086 -9.62807,8.48352 -14.38837,12.78456 -2.49787,2.36836 -5.06551,4.6795 -7.40916,7.19851 -3.78428,5.2065 -6.31885,11.1612 -9.42865,16.76609 -2.01035,3.84642 -4.02068,7.69284 -6.03103,11.53925 -10.905966,-1.43956 -22.02976,-1.26712 -32.874114,0.59721 -15.791466,6.85107 -30.2188,16.6656 -42.790905,28.39128 -5.619108,5.15706 -11.238215,10.31413 -16.857321,15.47119 4.002817,1.77372 8.273262,2.81299 12.526865,3.78485 10.876933,-1.37877 21.753866,-2.75754 32.630804,-4.1363 10.157944,2.51438 19.27441,9.0622 24.787748,17.97065 0.731183,1.15474 1.527875,2.27639 2.092039,3.52679 0.63409,17.04083 1.268179,34.08166 1.902256,51.1225 -2.58113,3.71137 -6.689394,5.9963 -9.320531,9.66693 -6.939954,8.19203 -11.027028,18.60523 -12.135134,29.24327 -1.221897,9.22161 -2.424467,18.44593 -3.72832,27.65643 -0.938017,2.343 -1.876033,4.68601 -2.814062,7.02901 7.290339,-9.15983 14.580678,-18.31966 21.871018,-27.47949 4.938855,-4.29166 11.090209,-6.76249 17.080973,-9.19176 2.772104,0.72732 4.464334,3.25323 6.096284,5.40891 8.7453,12.47691 17.13447,25.19785 25.48262,37.94235 5.22485,6.84247 11.30127,12.96252 17.03575,19.36605 1.07437,1.01214 1.98093,2.37793 1.88143,3.91455 0.14057,2.90589 -0.71849,5.72818 -1.14016,8.57887 -0.99259,5.31141 -1.62337,10.69697 -1.85607,16.09259 0.18963,2.09094 1.16518,3.99459 1.81904,5.96323 3.6047,9.46121 9.23152,17.99888 15.4773,25.91127 2.20895,2.97358 4.4179,5.94717 6.62685,8.92075 0.67914,2.58223 1.35828,5.16444 2.03743,7.74665 -1.45577,-15.46954 -2.91155,-30.93908 -4.36733,-46.40863 0.35696,-3.90012 1.02493,-7.77207 2.01777,-11.56099 2.3012,-2.23099 4.87431,-4.16123 7.55986,-5.90337 6.19667,2.23658 12.32394,4.65878 18.42533,7.14205 13.8745,9.08528 27.749,18.17055 41.62351,27.25583 9.39934,14.03925 15.97978,29.85015 20.09901,46.20463 1.36976,5.10955 2.73952,10.2191 4.10927,15.32865 2.1,-4.09888 2.17633,-8.80033 2.98476,-13.24394 0.64027,-4.76893 1.28054,-9.53788 1.92079,-14.30682 -2.3179,-16.5499 -7.1737,-32.79436 -14.83655,-47.66853 -2.12787,-4.01479 -4.30315,-8.0044 -6.45445,-12.00672 -17.21311,-9.91807 -34.74687,-19.45278 -50.63289,-31.45749 -15.60313,-11.79173 -29.5272,-25.89107 -40.63415,-42.01437 -6.81755,-9.79544 -12.43402,-20.41852 -16.71307,-31.55874 -3.87326,-10.0264 -6.79214,-20.41799 -8.8201,-30.97068 -2.04688,-11.82737 -0.89868,-23.9485 1.34942,-35.6587 2.91032,-15.50911 8.6288,-30.6031 17.57982,-43.65269 9.09105,-13.4872 21.05539,-24.88479 34.35638,-34.1735 13.94383,-9.71973 29.65448,-17.08615 46.31274,-20.66603 13.72086,-3.00196 27.89654,-3.89138 41.89009,-2.72862 13.80578,1.23835 27.38609,5.12653 39.67693,11.55298 15.90633,8.0885 29.7052,20.06726 40.49798,34.23556 10.37134,13.50593 18.32825,28.80916 23.84457,44.90307 4.11939,12.0901 6.54896,24.86319 6.10458,37.66969 -0.30156,10.08099 -1.8692,20.07326 -3.70661,29.97378 -2.50122,12.84064 -6.53792,25.41698 -12.42398,37.11579 -4.84776,9.80905 -10.94295,18.95566 -17.68025,27.56102 -3.92851,4.9965 -8.03743,9.8479 -12.02195,14.79977 -3.94447,4.8153 -7.84234,9.67268 -11.81574,14.46184 -0.81182,0.79554 -1.87451,1.80988 -1.56265,3.06675 0.85678,1.26741 2.58048,0.64583 3.70297,0.13187 17.8712,-7.21003 35.83321,-14.20624 54.01314,-20.60397 12.0236,-4.30403 24.20047,-8.34726 35.60205,-14.16799 8.13045,-4.1605 16.16935,-8.5167 23.95922,-13.28849 6.30797,-3.86045 12.34008,-8.1974 17.79457,-13.20215 8.63575,-7.79632 15.9554,-17.01799 21.72882,-27.11268 3.38302,-5.6621 6.56164,-11.44234 9.80138,-17.18673 0.25181,-1.08335 1.81463,-1.80624 1.28784,-3.03525 -0.88001,-0.98995 -2.11351,0.36154 -2.78769,0.99986 -9.20796,6.93803 -18.20018,14.2278 -28.04698,20.26504 -6.13823,3.70757 -12.67704,6.94908 -19.72501,8.48302 -4.15626,0.51476 -8.14528,-2.55575 -9.4035,-6.42262 -0.81729,-2.40691 -0.27568,-4.96335 -0.12042,-7.42748 0.53827,-5.44267 1.43992,-10.84471 2.45551,-16.21636 1.09159,-5.52213 2.29476,-11.03497 3.9358,-16.42202 3.74538,-10.72473 9.06414,-20.79357 13.96125,-31.01622 4.36188,-8.98474 8.88641,-17.93641 12.13879,-27.39923 4.21072,-13.28057 5.35031,-27.31681 5.29927,-41.18328 -0.1203,-16.03388 -1.42862,-32.02404 -2.4001,-48.02053 -0.12483,-0.91305 -0.0734,-3.12285 -0.30109,-3.27848 -0.89414,2.64969 -1.37208,5.41667 -2.1003,8.11374 -4.05874,16.5648 -7.63946,33.26098 -12.49418,49.61882 -2.61826,7.64138 -8.4346,14.19032 -15.86189,17.43501 -1.38318,0.93287 -3.4573,0.20102 -4.0337,-1.34419 -1.37643,-2.44792 -2.11724,-5.18093 -3.27018,-7.7318 -4.80819,-11.91947 -9.9587,-23.85857 -17.5282,-34.32703 -9.02885,-12.74126 -20.48803,-23.45061 -31.58259,-34.34392 -2.64832,-2.57722 -5.29664,-5.15444 -7.94496,-7.731653 -1.73678,-2.926067 -1.2846,-6.447768 -1.63814,-9.69159 C 367.17954,82.166391 366.88074,74.15627 363.96097,66.796319 359.00976,54.439863 350.35842,43.704056 339.6934,35.795609 323.65058,23.837326 307.17019,12.484066 290.68484,1.1488546 Z"
       id="path2"
       sodipodi:nodetypes="ccccccccccccccccccccccccccccccc" /></g></svg>
